<?xml version="1.0" encoding="UTF-8"?>
<svg version="1.1" xmlns="http://www.w3.org/2000/svg" width="64" height="64">
<path d="M0 0 C4.90708223 4.90708223 7.04375389 10.15630831 7.5 17 C7.40116071 22.89741081 5.73006929 27.48991761 1.9375 32 C-4.26427746 37.19218578 -8.47955831 39.58969001 -16.59765625 39.46875 C-22.45103207 38.87385155 -27.59930808 36.40069192 -31.75 32.25 C-35.98531064 26.12596975 -37.50488863 20.67756487 -36.75 13.25 C-35.33432013 7.59768993 -33.00202797 2.49906607 -28.078125 -0.90625 C-18.51366643 -6.62857564 -9.23787062 -5.87864494 0 0 Z M-20.75 9.25 C-21.74 10.735 -21.74 10.735 -22.75 12.25 C-21.43 13.57 -20.11 14.89 -18.75 16.25 C-19.95381448 18.74361571 -21.20428722 20.93143083 -22.75 23.25 C-21.265 24.24 -21.265 24.24 -19.75 25.25 C-18.43 23.93 -17.11 22.61 -15.75 21.25 C-13.25638429 22.45381448 -11.06856917 23.70428722 -8.75 25.25 C-8.09 24.26 -7.43 23.27 -6.75 22.25 C-8.07 20.93 -9.39 19.61 -10.75 18.25 C-9.54618552 15.75638429 -8.29571278 13.56856917 -6.75 11.25 C-7.74 10.59 -8.73 9.93 -9.75 9.25 C-11.07 10.57 -12.39 11.89 -13.75 13.25 C-16.24361571 12.04618552 -18.43143083 10.79571278 -20.75 9.25 Z " fill="#2F3E9F" transform="translate(46.75,14.75)"/>
</svg>
