<?xml version="1.0" encoding="UTF-8"?>
<!DOCTYPE svg PUBLIC "-//W3C//DTD SVG 1.1//EN" "http://www.w3.org/Graphics/SVG/1.1/DTD/svg11.dtd">
<svg xmlns="http://www.w3.org/2000/svg" version="1.1" width="64px" height="64px" style="shape-rendering:geometricPrecision; text-rendering:geometricPrecision; image-rendering:optimizeQuality; fill-rule:evenodd; clip-rule:evenodd" xmlns:xlink="http://www.w3.org/1999/xlink">
<g><path style="opacity:0.955" fill="#691b9a" d="M 27.5,9.5 C 45.3125,9.14503 53.8125,17.8117 53,35.5C 48.4059,50.2164 38.5726,55.7164 23.5,52C 11.5859,45.9977 7.41927,36.4977 11,23.5C 14.2825,16.1235 19.7825,11.4568 27.5,9.5 Z M 25.5,23.5 C 27.4807,25.1436 29.4807,26.8103 31.5,28.5C 33.4829,27.018 35.3163,25.3513 37,23.5C 37.8333,24.3333 38.6667,25.1667 39.5,26C 37.6487,27.6837 35.982,29.5171 34.5,31.5C 35.982,33.4829 37.6487,35.3163 39.5,37C 38.6667,37.8333 37.8333,38.6667 37,39.5C 35.3163,37.6487 33.4829,35.982 31.5,34.5C 29.5171,35.982 27.6837,37.6487 26,39.5C 25.1667,38.6667 24.3333,37.8333 23.5,37C 25.3513,35.3163 27.018,33.4829 28.5,31.5C 27.018,29.5171 25.3513,27.6837 23.5,26C 24.3805,25.2917 25.0472,24.4584 25.5,23.5 Z"/></g>
</svg>
