<svg version="1.1" id="Layer_1" xmlns="http://www.w3.org/2000/svg" xmlns:xlink="http://www.w3.org/1999/xlink" x="0px" y="0px"
	 width="100%" viewBox="0 0 50 50" enable-background="new 0 0 50 50" xml:space="preserve">
<path fill="#000000" opacity="1.000000" stroke="none" 
	d="
M10.000000,51.000000 
	C7.006642,51.000000 4.013285,51.000000 1.014946,51.000004 
	C1.009964,34.376884 1.009964,17.753759 1.009964,1.065317 
	C17.586020,1.065317 34.172333,1.065317 50.879330,1.065317 
	C50.879330,17.548536 50.879330,34.098244 50.879330,51.000000 
	C38.314610,51.000000 25.625961,51.000000 12.355589,50.543293 
	C11.849594,45.603630 12.245671,41.095718 11.898996,36.645668 
	C11.625077,33.129547 13.189297,31.578926 16.080200,30.446997 
	C24.327868,27.217636 32.553806,23.931625 40.760323,20.599024 
	C43.208759,19.604731 45.564976,18.383327 49.099400,16.736786 
	C35.643288,11.713017 23.489145,7.175331 10.000000,2.139228 
	C10.000000,18.971010 10.000000,34.985504 10.000000,51.000000 
z"/>
<path fill="#303F9F" opacity="1.000000" stroke="none" 
	d="
M10.333333,51.000000 
	C10.000000,34.985504 10.000000,18.971010 10.000000,2.139228 
	C23.489145,7.175331 35.643288,11.713017 49.099400,16.736786 
	C45.564976,18.383327 43.208759,19.604731 40.760323,20.599024 
	C32.553806,23.931625 24.327868,27.217636 16.080200,30.446997 
	C13.189297,31.578926 11.625077,33.129547 11.898996,36.645668 
	C12.245671,41.095718 11.849594,45.603630 11.886930,50.543293 
	C11.555555,51.000000 11.111111,51.000000 10.333333,51.000000 
z"/>
</svg>