<?xml version="1.0" encoding="UTF-8"?>
<svg version="1.1" xmlns="http://www.w3.org/2000/svg" width="50" height="50">
<path d="M0 0 C1.67632417 0.64199649 3.34750513 1.29894157 5 2 C5.99 1.34 6.98 0.68 8 0 C12.88516144 -0.71207438 16.8100735 -0.72852643 21.0625 1.875 C24.58892363 5.74269044 24.41027283 9.04118949 24.32421875 14.125 C23.37573605 22.5356418 16.95769469 27.08747647 10.71875 32.1171875 C5.84314026 35.49368735 5.84314026 35.49368735 3 36 C0.49741611 34.57564075 -1.39172468 33.2635492 -3.5625 31.4375 C-4.12646484 30.99341797 -4.69042969 30.54933594 -5.27148438 30.09179688 C-10.43028727 25.93458612 -15.45929823 21.21873129 -16.3359375 14.37890625 C-16.44193403 6.73655671 -16.44193403 6.73655671 -14.125 2.875 C-9.84582028 -0.90074681 -5.48706232 -0.38946026 0 0 Z " fill="#E53834" transform="translate(21,9)"/>
</svg>
