<svg version="1.1" id="Layer_1" xmlns="http://www.w3.org/2000/svg" xmlns:xlink="http://www.w3.org/1999/xlink" x="0px" y="0px"
	 width="100%" viewBox="0 0 50 50" enable-background="new 0 0 50 50" xml:space="preserve">
<path fill="#000000" opacity="1.000000" stroke="none" 
	d="
M25.239494,50.760132 
	C18.032797,51.000000 11.064302,50.924568 4.099144,51.043873 
	C1.877892,51.081921 0.877783,50.900005 0.912667,48.125404 
	C1.098261,33.363907 1.108261,18.597355 0.906559,3.836279 
	C0.867299,0.963163 2.007586,0.923851 4.137560,0.965683 
	C9.443856,1.069897 14.753572,1.000000 20.530956,1.000000 
	C22.349424,2.165319 23.323286,3.343766 21.781761,5.122171 
	C20.581615,6.506739 19.550783,8.044787 19.157637,9.885208 
	C18.477306,13.070015 19.047024,15.939463 21.884315,17.834862 
	C24.644133,19.678511 27.610256,19.607971 30.286579,17.642021 
	C33.023090,15.631859 33.552914,12.770798 32.722523,9.600556 
	C32.292286,7.958018 31.365147,6.558319 30.306719,5.273382 
	C29.170212,3.893660 29.033131,2.669093 30.758656,1.241662 
	C36.806046,1.000000 42.614174,1.087977 48.416969,0.950638 
	C50.357750,0.904704 51.093342,1.085557 51.071945,3.395415 
	C50.932110,18.489840 50.919617,33.587044 51.080143,48.681057 
	C51.106503,51.159664 50.123005,51.056896 48.341045,51.034504 
	C41.540756,50.949047 34.738750,51.000000 27.468693,51.000000 
	C25.376495,47.924541 26.251064,44.690598 26.371611,41.496796 
	C26.489965,38.361095 26.717693,35.217827 25.959173,32.086048 
	C25.305958,36.664173 25.437181,41.273289 25.866919,45.860535 
	C26.019152,47.485558 26.447495,49.030399 25.239494,50.760132 
z"/>
<path fill="#303F9F" opacity="1.000000" stroke="none" 
	d="
M30.545891,1.000000 
	C30.348650,3.164387 32.314041,3.904713 33.409496,4.790446 
	C37.444733,8.053136 36.503662,12.548956 35.529877,16.237370 
	C34.846619,18.825354 32.302853,21.674780 28.733595,21.960760 
	C24.221712,22.322266 19.850319,22.346752 17.093357,17.641422 
	C14.895528,13.890374 15.612394,7.109976 18.969469,4.117837 
	C19.831356,3.349643 20.821609,2.766604 21.166147,1.338673 
	C24.030594,1.000000 27.061186,1.000000 30.545891,1.000000 
z"/>
<path fill="#303F9F" opacity="1.000000" stroke="none" 
	d="
M25.333332,51.000000 
	C21.785795,43.141994 23.346445,34.890385 23.004263,26.795576 
	C22.913795,24.655451 23.011066,22.929417 26.026344,22.937279 
	C29.083439,22.945251 29.152739,24.761049 28.978954,26.846478 
	C28.328693,34.649681 30.830284,42.756508 26.874687,50.615345 
	C26.555555,51.000000 26.111111,51.000000 25.333332,51.000000 
z"/>
</svg>