<?xml version="1.0" encoding="UTF-8"?>
<svg version="1.1" xmlns="http://www.w3.org/2000/svg" width="50" height="50">
<path d="M0 0 C3.125 1.875 3.125 1.875 5 5 C5.98876625 10.02622846 5.7769173 13.70513784 3.125 18.125 C-1.29486216 20.7769173 -4.97377154 20.98876625 -10 20 C-13.125 18.125 -13.125 18.125 -15 15 C-15.98876625 9.97377154 -15.7769173 6.29486216 -13.125 1.875 C-8.70513784 -0.7769173 -5.02622846 -0.98876625 0 0 Z M-10 7 C-9 10 -9 10 -9 10 Z " fill="#E43734" transform="translate(30,1)"/>
<path d="M0 0 C1.98 0 3.96 0 6 0 C6.05797565 3.93743833 6.09358789 7.87476719 6.125 11.8125 C6.14175781 12.93205078 6.15851562 14.05160156 6.17578125 15.20507812 C6.18222656 16.27822266 6.18867188 17.35136719 6.1953125 18.45703125 C6.20578613 19.44678955 6.21625977 20.43654785 6.22705078 21.45629883 C6 24 6 24 4 27 C3.34 27 2.68 27 2 27 C-0.26598448 23.60102327 -0.23742654 22.43680827 -0.1953125 18.45703125 C-0.18886719 17.38388672 -0.18242187 16.31074219 -0.17578125 15.20507812 C-0.15064453 13.52575195 -0.15064453 13.52575195 -0.125 11.8125 C-0.11597656 10.68134766 -0.10695313 9.55019531 -0.09765625 8.38476562 C-0.07406862 5.58963172 -0.041153 2.79492155 0 0 Z " fill="#E53733" transform="translate(22,22)"/>
</svg>
