<?xml version="1.0" encoding="UTF-8"?>
<svg version="1.1" xmlns="http://www.w3.org/2000/svg" width="48" height="48">
<path d="M0 0 C5.06117923 1.18336924 9.16439011 4.81079259 13.25 7.875 C13.9821875 8.40480469 14.714375 8.93460938 15.46875 9.48046875 C16.16484375 9.99996094 16.8609375 10.51945313 17.578125 11.0546875 C18.21137695 11.52374512 18.84462891 11.99280273 19.49707031 12.47607422 C21.34998955 14.35487894 21.75925357 15.37720974 22 18 C21.47094727 20.47363281 21.47094727 20.47363281 20.56640625 23.203125 C20.13630249 24.52812012 20.13630249 24.52812012 19.69750977 25.87988281 C19.32295654 26.99202148 18.94840332 28.10416016 18.5625 29.25 C17.386875 32.7975 16.21125 36.345 15 40 C5.76 40 -3.48 40 -13 40 C-14.7634375 34.67875 -14.7634375 34.67875 -16.5625 29.25 C-16.93705322 28.13786133 -17.31160645 27.02572266 -17.69750977 25.87988281 C-17.98424561 24.99655273 -18.27098145 24.11322266 -18.56640625 23.203125 C-18.86490479 22.30239258 -19.16340332 21.40166016 -19.47094727 20.47363281 C-20.04413577 17.79363929 -20.08761688 16.50260347 -19 14 C-17.46533203 12.47607422 -17.46533203 12.47607422 -15.5078125 11.0546875 C-14.80269531 10.53519531 -14.09757813 10.01570312 -13.37109375 9.48046875 C-12.62988281 8.95066406 -11.88867188 8.42085937 -11.125 7.875 C-10.39152344 7.33746094 -9.65804688 6.79992187 -8.90234375 6.24609375 C-5.96953244 4.10391281 -3.02230848 2.01487232 0 0 Z " fill="#2F3E9F" transform="translate(23,3)"/>
</svg>
